<svg width="38" height="38" viewBox="0 0 38 38" fill="none" xmlns="http://www.w3.org/2000/svg">
<rect width="38" height="38" fill="#1E1E1E"/>
<path d="M29.1294 24.3263C28.7633 24.0975 28.3019 24.0853 27.9243 24.2947C27.5468 24.504 27.3125 24.9017 27.3125 25.3333V33.25C27.3125 33.6816 27.5468 34.0793 27.9243 34.2887C28.3019 34.498 28.7633 34.4858 29.1294 34.257L35.4627 30.2987C35.8099 30.0816 36.0208 29.7011 36.0208 29.2917C36.0208 28.8822 35.8099 28.5017 35.4627 28.2847L29.1294 24.3263ZM3.16667 24.9375C2.51084 24.9375 1.97917 25.4692 1.97917 26.125V32.4583C1.97917 33.1141 2.51084 33.6458 3.16667 33.6458H23.75C24.4058 33.6458 24.9375 33.1141 24.9375 32.4583V26.125C24.9375 25.4692 24.4058 24.9375 23.75 24.9375H3.16667ZM3.16667 13.8542C2.51084 13.8542 1.97917 14.3858 1.97917 15.0417V21.375C1.97917 22.0308 2.51084 22.5625 3.16667 22.5625H34.8333C35.4892 22.5625 36.0208 22.0308 36.0208 21.375V15.0417C36.0208 14.3858 35.4892 13.8542 34.8333 13.8542H3.16667ZM3.16667 2.77083C2.51084 2.77083 1.97917 3.3025 1.97917 3.95833V10.2917C1.97917 10.9475 2.51084 11.4792 3.16667 11.4792H34.8333C35.4892 11.4792 36.0208 10.9475 36.0208 10.2917V3.95833C36.0208 3.3025 35.4892 2.77083 34.8333 2.77083H3.16667Z" fill="#EE4D4D"/>
<path d="M32.672 31.2974L31.775 30.4031C32.0644 30.0344 32.2214 29.5791 32.2209 29.1104C32.2209 28.693 32.0971 28.285 31.8652 27.9379C31.6333 27.5909 31.3037 27.3204 30.9181 27.1606C30.5324 27.0009 30.1081 26.9591 29.6987 27.0406C29.2893 27.122 28.9133 27.323 28.6181 27.6181C28.323 27.9133 28.122 28.2893 28.0406 28.6987C27.9591 29.1081 28.0009 29.5324 28.1606 29.9181C28.3204 30.3037 28.5909 30.6333 28.9379 30.8652C29.285 31.0971 29.693 31.2209 30.1104 31.2209C30.5791 31.2214 31.0344 31.0644 31.4031 30.775L32.2974 31.672C32.3219 31.6967 32.3511 31.7163 32.3832 31.7297C32.4154 31.7431 32.4498 31.75 32.4847 31.75C32.5195 31.75 32.554 31.7431 32.5861 31.7297C32.6183 31.7163 32.6474 31.6967 32.672 31.672C32.6967 31.6474 32.7163 31.6183 32.7297 31.5861C32.7431 31.554 32.75 31.5195 32.75 31.4847C32.75 31.4498 32.7431 31.4154 32.7297 31.3832C32.7163 31.3511 32.6967 31.3219 32.672 31.2974ZM28.5276 29.1104C28.5276 28.7974 28.6204 28.4914 28.7944 28.2311C28.9683 27.9708 29.2155 27.7679 29.5047 27.6481C29.7939 27.5283 30.1122 27.4969 30.4192 27.558C30.7263 27.6191 31.0083 27.7698 31.2297 27.9912C31.451 28.2126 31.6018 28.4946 31.6628 28.8016C31.7239 29.1087 31.6926 29.4269 31.5728 29.7162C31.453 30.0054 31.2501 30.2526 30.9898 30.4265C30.7295 30.6004 30.4235 30.6933 30.1104 30.6933C29.6906 30.6933 29.288 30.5265 28.9912 30.2297C28.6944 29.9328 28.5276 29.5302 28.5276 29.1104Z" fill="black"/>
</svg>
